<?xml version="1.0" encoding="utf-8"?>
<!-- Generator: Adobe Illustrator 19.0.0, SVG Export Plug-In . SVG Version: 6.00 Build 0)  -->
<svg version="1.1" id="layer" xmlns="http://www.w3.org/2000/svg" xmlns:xlink="http://www.w3.org/1999/xlink" x="0px" y="0px"
	 viewBox="-153 -46 652 652" style="enable-background:new -153 -46 652 652;" xml:space="preserve">
<style type="text/css">
	.st0{fill:#00294F;}
</style>
<g>
	<path class="st0" d="M-75.9,263.7c-2.3,6.8-12.6,5.7-28.9,5.8c0,0,0-47.8,0-49.2c0-2,0.1-2.9,0.9-4.1c1.4-2,5.9-1.9,11-1.9v-8.9
		h-38.5v8.9c1.5,0,9-0.7,10.1,2.2c0.4,1,0.5,1.7,0.5,3.8c0,1.6,0,43.1,0,43.1c0,1.5,0.1,3.3-0.4,4.2c-0.7,1.3-1.7,2.1-10.2,2.1
		c0,3.6,0,8.7,0,8.7h65.5v-31.1l-7.7,0C-74,252.8-74.5,259.7-75.9,263.7"/>
	<path class="st0" d="M464.4,210.5c0-1.6-0.9-2.4-2.9-2.4h-3.4v8.8h1.1V213h1.8l2.5,3.9h1.3l-2.6-3.9
		C463.4,212.8,464.4,212.1,464.4,210.5 M460.7,212.1h-1.4v-3h2c1.1,0,2.1,0.3,2.1,1.5C463.4,212,462.1,212.1,460.7,212.1"/>
	<path class="st0" d="M461,204.9c-4.3,0-7.6,3.3-7.6,7.6c0,4.3,3.3,7.6,7.6,7.6c4.3,0,7.6-3.3,7.6-7.6
		C468.6,208.2,465.3,204.9,461,204.9 M461,219c-3.7,0-6.4-2.9-6.4-6.5c0-3.6,2.7-6.5,6.4-6.5c3.7,0,6.4,2.9,6.4,6.5
		C467.4,216.1,464.6,219,461,219"/>
	<path class="st0" d="M192,217.8l0,47.4c0,5.1-5.4,4.1-10.3,4.3v8.8h37.1l0-8.8c-7.2,0-10.3,0.6-10.3-4.3v-47.5
		c0-4,3.7-3.3,10.3-3.3v-9h-37.1v9C187.2,214.4,192,213.6,192,217.8"/>
	<path class="st0" d="M421.6,234c-18.5-3.9-19.2-7.9-19.7-10.1c-0.4-1.5-0.4-4.2,1.3-6.7c1.7-2.5,5.6-4.6,11.7-4.6
		c17.8,0,21.9,12.3,24,20.8l7.7-0.1l0.1-28.1l-6.5,0l-3.8,5.4c-5.8-4.6-13.7-7.1-21.4-7.1c-10.3,0-26.3,4.6-26.3,22.7
		c0,19,20.4,21.5,29.1,23.3c11.8,2.4,16.9,4.7,18.9,8.1c2.3,3.7,0.3,8.8-2.6,11.1c-3.1,2.5-11.2,4.2-22,1
		c-9.7-2.8-13.5-12.9-15.2-20.8h-7.3v29.4h5.8l4.1-5.8c1.1,1.8,11,8.3,24.1,8.3c13.3,0,27.8-5.8,27.8-23.1
		C451.3,237.9,428,235.3,421.6,234"/>
	<path class="st0" d="M274,214.4l6.8,0c5-0.1,4.8,2.2,4.8,4.6c0.1,12.2,0,32.3,0,32.3l-31.8-46h-29.6v9.1l6.3,0
		c4.2,0,4.6,2.2,4.6,5.8v43c0,7.3-2,6.2-10.9,6.2v8.8H260l0-8.8c-10.1,0-12.7,1.1-12.7-5.5v-39.3c12.2,18,36.5,53.7,36.5,53.7h13.7
		v-59.7c0-1.7-0.1-4.3,3.1-4.3l7.9,0v-9H274L274,214.4z"/>
	<path class="st0" d="M313,214.5c9.4,0,12.1-1,12.1,4.3l0,45.7c0,5.7-2.2,4.6-12,4.9l0,9h70v-31.1l-8.2,0v8.8
		c-0.1,10.5-7.4,13.3-14.2,13.2l-19.6,0.1v-24.4c0,0,7.9-0.8,10.7,1.8c3.4,3.2,3,13.3,3,13.3h7.9v-37.2l-7.9,0c0,0-0.2,9.4-3.1,11.7
		c-3,2.3-10.7,1.7-10.7,1.7v-22l19.6,0.1c1.4,0,8.1-0.4,11.1,2.8c2.9,3,3.4,9.9,3.4,13.1c0,3.4,0,5.1,0,5.1l7.9,0.1v-30.2h-70
		L313,214.5z"/>
	<path class="st0" d="M184.5,299.3l-6.1-10h-40.9l-6.5,9.9l-5.6-9.9H16.1l13.5,11.4h23l8.5,8.1h22l10.1,8.1h21.9l8,8.1h17v23.4h35.8
		v-23.4h16.7l7.7-8.1H223l7.5-8.1h23.8l7.3-8.1h24l12.4-11.4H192.4L184.5,299.3z M152.7,311.4l10.3,0l-4.9,7.4L152.7,311.4z
		 M162.8,334h-9.7l4.7-7.7L162.8,334z M150.5,308.4l-4.3-6.7h23.8l-4.5,6.7H150.5z M155.2,323l-11.1,16.9v-33.9L155.2,323z
		 M146,344.5l4.3-6.7h15l4.5,6.7H146z M171.8,340.4L160.4,323l11.4-17V340.4z M288.7,293l-4.7,4h-61.8l-3.4,3.7h37.5l-4.3,4.5h-48.5
		l-3.3,3.6h25.1l-4.4,4.4l-36.5,0l-3.5,3.6h13.9l-3.8,3.9l-15.3,0l0.1-22.8h-35.8l-0.1,22.8l-15.3,0l-3.6-3.9h13.5l-3.9-3.6H94.7
		l-5.1-4.4h25.6l-3.7-3.6H63.8l-4.8-4.5h38.4l-4-3.7H31.2l-5-4.1H123l7.9,13.5l8.8-13.4l36.3-0.1l8.4,13.8l9.8-13.7H288.7z"/>
	<path class="st0" d="M67.6,214.3l6.8,0c5-0.1,4.8,2.2,4.8,4.6c0.1,12.2,0,32.3,0,32.3l-31.8-46H17.8v9.1l8.1,0
		c3.6,0.3,2.7,2.2,2.8,5.8v43c0,6.8-1.3,6.2-10.9,6.2v8.8h35.9l0-8.8c-9.8,0-12.7,0.9-12.7-5.5v-39.3c12.2,18,36.5,53.7,36.5,53.7
		h13.7v-59.7c0-1.8-0.3-4.3,3.1-4.3l7.9,0v-9H67.7L67.6,214.3z"/>
	<path class="st0" d="M14.8,221.9c-5.6-9.7-15.5-15.7-25.6-17.8c-3.4-0.7-6.9-1-10.3-1c-11,0.1-21.4,3.7-29.5,11.3
		c-10.5,10.3-13.5,26-9.2,40.2c3.9,13.1,17,23.8,30.5,25.6c2.8,0.4,5.5,0.6,8.2,0.6c13.5,0,26.1-5,34.3-16.3
		C21.5,252.8,21.9,234.1,14.8,221.9 M1.8,242.1c0,11.2-2.2,23.7-13.4,28c-3,1.1-6.2,1.4-9.5,1.4c-3.2,0-6.6-0.4-9.6-1.7
		c-10-4.3-12.9-16.5-13.2-27.7c0-10,2.7-21.7,10.1-26.4c4-2.6,8-3.6,12.8-3.5c4.7,0,9.3,0.9,13,3.5C-1.6,220.3,2.2,229.7,1.8,242.1"
		/>
	<path class="st0" d="M118.7,276.4c5.1,3,11.4,4.4,17.7,4.3c8.7,0,17.5-2.7,23.7-7.6c1.5,1.7,2.8,3.6,4.1,5.4h8.6l0-25.6
		c0.1-6.6,2.5-5.2,9.7-5.4v-7.9h-37.6v7.9c9.7,0.3,11.8-1.3,11.9,5.4c0,14-9.1,16.7-11,17.5c-6.5,2.8-14.9,1.6-20-4.4
		c-9.4-11.3-9.1-37.1,0.1-48.1c4.9-5.6,12.4-6.6,20-4.1c8.6,2.8,13.5,11.8,15.7,19.8h8.8v-28.3h-8.6l-3,5.8
		c-6.2-5.3-14.8-8-23.3-7.8c-4.6,0.1-9.2,1-13.4,2.7c-13.5,5.2-20.6,19.3-21.3,32.9C100.2,254.1,105,268.7,118.7,276.4"/>
</g>
</svg>
